<?xml version="1.0" encoding="utf-8"?>
<!-- Generator: Adobe Illustrator 27.0.0, SVG Export Plug-In . SVG Version: 6.00 Build 0)  -->
<svg version="1.1" id="Layer_1" xmlns="http://www.w3.org/2000/svg" xmlns:xlink="http://www.w3.org/1999/xlink" x="0px" y="0px"
	 viewBox="0 0 120 120" style="enable-background:new 0 0 120 120;" xml:space="preserve">
<style type="text/css">
	.st0{fill:url(#SVGID_1_);}
	.st1{fill:#FFFFFF;}
	.st2{fill:#FAD20B;}
	.st3{fill:#3D3D9B;}
</style>
<linearGradient id="SVGID_1_" gradientUnits="userSpaceOnUse" x1="0" y1="60" x2="120" y2="60">
	<stop  offset="0" style="stop-color:#9B9BEA"/>
	<stop  offset="0.9992" style="stop-color:#0B0BB5"/>
</linearGradient>
<rect y="0" class="st0" width="120" height="120"/>
<path class="st1" d="M88,28.1c-4.1,0-7.4-3.3-7.4-7.4V0.4c0-0.1,0-0.3,0-0.4H0v120h120V28.1H88z"/>
<g>
	<path class="st2" d="M72.6,48.3L72.6,48.3l-3.7,11.3C67.2,54.9,63,42.1,63,42.1c-0.1-0.4-0.3-0.9-0.5-1.4c-0.2-0.5-0.4-0.8-0.7-0.8
		h0c-0.3,0-0.5,0.3-0.7,0.8c-0.2,0.5-0.4,1-0.5,1.4c0,0-4.3,13.1-6,17.7l-3.7-11.3l1.3-3.8l2.7-8.1c0.7-2.2,1.6-3.7,2.6-4.6
		c1-0.8,2.3-1.3,3.9-1.3c0.1,0,0.2,0,0.3,0h0.1c0.1,0,0.2,0,0.3,0c1.7,0,3,0.5,3.9,1.3c1,0.9,1.9,2.4,2.6,4.6L72.6,48.3z"/>
	<g>
		<path class="st3" d="M54.4,66c0,2-1.6,3.7-3.6,3.7c-1.2,0-2.2-0.6-2.9-1.4c-0.4-0.6-6.6-19.2-6.6-19.2c-0.1-0.4-0.3-0.9-0.5-1.4
			c-0.2-0.5-0.4-0.8-0.7-0.8c-0.3,0-0.5,0.3-0.7,0.8c-0.2,0.5-0.4,1-0.5,1.4c0,0-6.1,18.7-6.6,19.2c-0.7,0.9-1.7,1.4-2.9,1.4
			c-2,0-3.6-1.6-3.6-3.7c0-0.2,0-0.3,0-0.5c0-0.2,0.1-0.5,0.2-0.7h0l0.9-2.8l3.5-10.4l2.7-8.1c0.8-2.2,1.6-3.7,2.6-4.6
			c1-0.8,2.3-1.3,3.9-1.3c0.1,0,0.2,0,0.3,0h0.1c0.1,0,0.2,0,0.3,0c1.7,0,3,0.5,3.9,1.3c1,0.9,1.9,2.4,2.6,4.6l7.2,21.4h0
			c0.1,0.2,0.1,0.4,0.2,0.7C54.4,65.7,54.4,65.8,54.4,66z"/>
		<path class="st3" d="M97.5,66c0,2-1.6,3.7-3.6,3.7c-1.2,0-2.2-0.6-2.9-1.4c-0.4-0.6-6.6-19.2-6.6-19.2c-0.1-0.4-0.3-0.9-0.5-1.4
			c-0.2-0.5-0.4-0.8-0.7-0.8c-0.3,0-0.5,0.3-0.7,0.8c-0.2,0.5-0.4,1-0.5,1.4c0,0-6.1,18.7-6.6,19.2c-0.7,0.9-1.7,1.4-2.9,1.4
			c-2,0-3.6-1.6-3.6-3.7c0-0.2,0-0.3,0-0.5c0-0.2,0.1-0.5,0.2-0.7h0l0.9-2.8l3.5-10.4l2.7-8.1c0.8-2.2,1.6-3.7,2.6-4.6
			c1-0.8,2.3-1.3,3.9-1.3c0.1,0,0.2,0,0.3,0h0.1c0.1,0,0.2,0,0.3,0c1.7,0,3,0.5,3.9,1.3c1,0.9,1.9,2.4,2.6,4.6l7.2,21.4h0
			c0.1,0.2,0.1,0.4,0.2,0.7C97.4,65.7,97.5,65.8,97.5,66z"/>
		<path class="st3" d="M45.5,82.4c0,0.1,0,0.1,0,0.1c0,0,0,0.1-0.1,0.1c0,0-0.1,0.1-0.2,0.1c-0.1,0-0.1,0-0.2,0h-2
			c-0.1,0-0.2,0-0.3-0.1c-0.1,0-0.2-0.1-0.2-0.1c-0.1-0.1-0.1-0.2-0.2-0.4c0-0.1,0-0.3,0-0.4c0-0.2,0-0.4,0.1-0.5
			c0-0.1,0.1-0.2,0.1-0.2c0.1-0.1,0.2-0.2,0.3-0.2c0.1,0,0.2,0,0.2,0h2.4V82.4z M46.8,78.1c-0.1-0.3-0.2-0.5-0.3-0.6
			c-0.1-0.2-0.3-0.3-0.6-0.4c-0.2-0.1-0.5-0.1-0.8-0.1h-2.3c-0.6,0-1.2,0.5-1.3,1.1v0h3.2c0.1,0,0.2,0,0.4,0.1
			c0.1,0,0.2,0.1,0.3,0.2c0.1,0.1,0.1,0.2,0.2,0.3c0,0.1,0,0.2,0,0.3v0.7h-2.8c-0.2,0-0.4,0-0.6,0.1c-0.2,0-0.4,0.1-0.6,0.3
			c-0.2,0.2-0.4,0.5-0.5,0.7C41,81.2,41,81.5,41,81.7c0,0.1,0,0.3,0,0.4c0,0.2,0,0.3,0.1,0.5c0,0.2,0.1,0.3,0.2,0.5
			c0.1,0.2,0.2,0.3,0.3,0.4c0.2,0.2,0.4,0.3,0.6,0.3c0.2,0,0.4,0,0.6,0h3.1c0.2,0,0.3,0,0.5,0c0.2,0,0.3-0.1,0.4-0.2
			c0.1-0.1,0.2-0.3,0.2-0.4c0-0.2,0-0.3,0-0.4v-3.7C46.9,78.7,46.9,78.4,46.8,78.1z"/>
		<path class="st3" d="M52.5,81.3l-1.4,2.3L51,83.8h0.9c0,0,0,0,0.1,0c0.2,0,0.4-0.1,0.6-0.2c0,0,0.1,0,0.1-0.1
			c0.2-0.1,0.4-0.3,0.5-0.6l0.8-1.6c-0.4-0.2-0.7-0.4-1-0.7L52.5,81.3z M56.8,83.6l-1.1-1.7c-0.6-0.1-1.2-0.2-1.7-0.5l0.8,1.7
			c0.2,0.4,0.6,0.7,1.1,0.7h0c0,0,0,0,0.1,0h0.9L56.8,83.6z"/>
		<path class="st3" d="M53.1,83l-0.4,0.8h-0.8c0,0,0,0,0.1,0c0.2,0,0.4-0.1,0.6-0.2c0,0,0.1,0,0.1-0.1C52.8,83.5,53,83.3,53.1,83z"
			/>
		<path class="st3" d="M55.9,83.9h-0.8l-0.4-0.7C55,83.5,55.4,83.8,55.9,83.9L55.9,83.9C55.9,83.9,55.9,83.9,55.9,83.9z"/>
		<path class="st3" d="M62.4,77v3c-0.3,0-0.5-0.1-0.8-0.1c-0.2,0-0.5,0-0.7,0v-3H62.4z"/>
		<path class="st3" d="M62.4,80.5v3.3h-1.5v-3.3c0.2,0,0.4,0,0.7,0C61.9,80.5,62.1,80.5,62.4,80.5z"/>
		<path class="st3" d="M86,78.4c0-0.1,0-0.1,0-0.2c0-0.1-0.1-0.2-0.1-0.4l-0.1-0.1c-0.1-0.2-0.2-0.3-0.4-0.4
			c-0.2-0.1-0.4-0.2-0.6-0.2c0,0-0.1,0-0.1,0h-0.1v5.1c0,0.1,0,0.1,0,0.2c0,0.1,0,0.1-0.1,0.2c-0.1,0.1-0.2,0.1-0.4,0.1h-1.2
			c-0.3,0-0.5,0-0.7-0.1c-0.2-0.1-0.4-0.2-0.5-0.4c-0.1-0.1-0.2-0.3-0.2-0.5c0-0.2-0.1-0.4-0.1-0.7v-2.6c0,0,0,0,0-0.1
			c0-0.1,0-0.1,0-0.2c0-0.1-0.1-0.2-0.1-0.4l-0.1-0.1c-0.1-0.2-0.2-0.3-0.4-0.4c-0.2-0.1-0.4-0.2-0.6-0.2c0,0-0.1,0-0.1,0h-0.1v4.3
			c0,0.4,0,0.8,0.1,1.1c0.1,0.3,0.3,0.6,0.5,0.9c0.2,0.2,0.5,0.3,0.7,0.4c0.3,0.1,0.6,0.1,1,0.1h2.3c0.2,0,0.4,0,0.5,0
			c0.2,0,0.4-0.1,0.5-0.2c0.2-0.1,0.3-0.3,0.3-0.5c0-0.2,0-0.3,0-0.5L86,78.4C86,78.5,86,78.4,86,78.4z"/>
		<path class="st3" d="M81.3,77.1v1.4c0,0,0,0,0-0.1c0-0.1,0-0.1,0-0.2c0-0.1-0.1-0.2-0.1-0.4l-0.1-0.1c-0.1-0.2-0.2-0.3-0.4-0.4
			c-0.2-0.1-0.4-0.2-0.6-0.2c0,0-0.1,0-0.1,0H81.3z"/>
		<path class="st3" d="M97.4,81.5c0-0.1,0-0.3-0.1-0.5c0-0.2-0.1-0.3-0.2-0.5c-0.1-0.2-0.2-0.3-0.3-0.4c-0.1-0.1-0.3-0.2-0.5-0.3
			c-0.2-0.1-0.5-0.2-0.7-0.3l-2.3-0.7l-0.9-0.3c-0.3-0.1-0.6-0.3-0.7-0.4c-0.1-0.2-0.1-0.4-0.1-0.6c0-0.1,0-0.2,0-0.3
			c0-0.1,0.1-0.3,0.2-0.4c0.1-0.1,0.2-0.1,0.3-0.2c0.1,0,0.2,0,0.4,0h3.2c0,0,0,0,0,0c0.2,0,0.4-0.1,0.5-0.2c0,0,0.1,0,0.1-0.1
			c0.3-0.2,0.6-0.6,0.6-1.1c0,0,0,0,0,0h-5c0,0-0.1,0-0.1,0c-1,0.1-1.7,0.8-1.9,1.7c0,0,0,0,0,0c0,0.1,0,0.2,0,0.4v0.1
			c0,0.1,0,0.3,0,0.4c0,0.1,0,0.3,0.1,0.4c0,0.1,0.1,0.3,0.1,0.4c0.1,0.1,0.1,0.3,0.2,0.4c0.1,0.1,0.2,0.2,0.3,0.3
			c0.1,0.1,0.2,0.1,0.3,0.2c0.1,0.1,0.2,0.1,0.3,0.1c0.1,0,0.1,0,0.2,0.1l2.7,0.9l0.8,0.3c0.2,0.1,0.3,0.1,0.5,0.2
			c0.1,0.1,0.2,0.2,0.3,0.3c0.1,0.1,0.1,0.2,0.1,0.3c0,0.1,0,0.2,0,0.3c0,0.1,0,0.2,0,0.3c0,0.1,0,0.2-0.1,0.3
			c-0.1,0.1-0.1,0.2-0.2,0.3c-0.1,0.1-0.3,0.1-0.5,0.1h-3.7c0,0,0,0-0.1,0h0c-0.2,0-0.4,0.1-0.6,0.2c0,0,0,0,0,0
			c-0.2,0.1-0.3,0.3-0.4,0.5c-0.1,0.1-0.1,0.2-0.1,0.4c0,0.1,0,0.2,0,0.3c0,0,0,0,0,0h5.5c0.5,0,1-0.2,1.4-0.6
			c0.3-0.3,0.5-0.6,0.6-1v0c0-0.2,0.1-0.4,0.1-0.6c0,0,0-0.1,0-0.1C97.5,81.8,97.5,81.6,97.4,81.5z"/>
		<path class="st3" d="M36.9,76.4v7.9c0,0,0,0,0,0c-0.5,0-1-0.3-1.3-0.7c0,0-0.1-0.1-0.1-0.1c-0.1-0.2-0.2-0.4-0.2-0.7c0,0,0,0,0,0
			c0,0,0,0,0,0l0-0.3v0l0-5l0-0.1c0-0.1,0-0.2-0.1-0.2c0,0-0.1,0-0.1,0c0,0-0.1,0-0.1,0.1c0,0.1-0.1,0.1-0.1,0.2l-1.2,3.2l0,0
			l-0.8,2l0,0l-0.2,0.6c-0.1,0.2-0.1,0.3-0.2,0.5c-0.1,0.1-0.1,0.2-0.2,0.3c-0.1,0.1-0.2,0.2-0.3,0.2c-0.1,0-0.3,0.1-0.5,0.1
			c-0.2,0-0.4,0-0.5-0.1c-0.1-0.1-0.3-0.1-0.3-0.2c-0.1-0.1-0.2-0.2-0.2-0.3c-0.1-0.1-0.1-0.3-0.2-0.4L30,82.6l-0.8-2L28,77.3
			c0-0.1,0-0.1-0.1-0.2c0-0.1-0.1-0.1-0.1-0.1c-0.1,0-0.1,0-0.1,0.1c0,0.1,0,0.1,0,0.1l0,0.1l0,4.2v1c0,0,0,0,0,0
			c0,0.2-0.1,0.5-0.2,0.7c0,0,0,0.1-0.1,0.1c-0.3,0.4-0.8,0.7-1.3,0.7c0,0,0,0,0,0v-7.9c0-0.3,0.1-0.5,0.2-0.7
			c0.1-0.2,0.3-0.3,0.4-0.4c0.2-0.1,0.3-0.1,0.5-0.1c0.2,0,0.3,0,0.3,0c0.3,0,0.5,0,0.6,0.1c0.2,0.1,0.3,0.1,0.4,0.2
			c0.1,0.1,0.2,0.2,0.3,0.4c0.1,0.1,0.1,0.3,0.2,0.4l2.3,5.9c0,0.1,0.1,0.2,0.1,0.2c0,0.1,0.1,0.1,0.1,0.1c0,0,0.1,0,0.1-0.1
			c0-0.1,0.1-0.1,0.1-0.2l2.3-5.9c0.1-0.3,0.2-0.5,0.3-0.6c0.1-0.1,0.2-0.3,0.4-0.3c0.1-0.1,0.3-0.1,0.4-0.2c0.1,0,0.3,0,0.5,0
			c0.4,0,0.7,0.1,1,0.3C36.8,75.7,36.9,76,36.9,76.4z"/>
		<path class="st3" d="M67,82c0.3,0,0.5,0,0.8-0.1v0.7c0,0.4-0.2,0.8-0.6,1.1c0,0-0.1,0-0.1,0.1c-0.2,0.1-0.4,0.2-0.6,0.2
			c0,0,0,0-0.1,0h-0.1v-1.9C66.6,81.9,66.8,82,67,82z"/>
		<path class="st3" d="M71.9,79v4.9h-1.5v-3.1C71.1,80.3,71.6,79.7,71.9,79z"/>
		<path class="st3" d="M75.8,79.1v4.7h-0.1c0,0,0,0-0.1,0h0c0,0,0,0-0.1,0c-0.2,0-0.4-0.1-0.6-0.2c-0.2-0.1-0.3-0.3-0.5-0.5
			c-0.1-0.2-0.1-0.4-0.2-0.6v-2.6v0c0,0,0,0,0-0.1c0-0.1,0-0.1,0-0.2c0-0.1-0.1-0.2-0.1-0.4l0,0l-0.1-0.1c-0.1-0.2-0.2-0.3-0.4-0.4
			c-0.2-0.1-0.4-0.2-0.6-0.2c0,0,0,0-0.1,0h0c0,0-0.1,0-0.1,0H72c0.2-0.5,0.3-1,0.4-1.5h1.1c0,0,0.1,0,0.1,0c0,0,0,0,0,0h0.3
			c0.3,0,0.5,0.1,0.7,0.2c0.2,0.1,0.4,0.2,0.5,0.3c0.2,0.2,0.3,0.4,0.4,0.7c0,0,0,0,0,0C75.7,78.6,75.8,78.8,75.8,79.1z"/>
		<path class="st3" d="M56.9,77l-0.2,0.2l-1.5,2.3l-0.6,0.9l0.5,0.8c-1.2-0.3-2.3-1-3-2l-0.4-0.7l-0.8-1.3L51,77h0.9
			c0.5,0,0.9,0.3,1.1,0.6l0.1,0.1l0.9,1.6l0.9-1.6c0.1-0.2,0.2-0.4,0.4-0.5c0,0,0,0,0,0c0.2-0.1,0.5-0.2,0.7-0.2H56.9z"/>
		<path class="st3" d="M60.8,74.5h1.5v1.2h-1.5V74.5z"/>
		<path class="st3" d="M70.4,79.9v-1.4h-1.1c0,0-0.1,0-0.1,0h0c0,0-0.1,0-0.1,0c0,0,0,0,0,0c-0.2,0-0.4,0.1-0.6,0.2c0,0,0,0,0,0
			c-0.2,0.1-0.3,0.3-0.4,0.5c-0.1,0.1-0.1,0.2-0.1,0.4c0,0.1,0,0.2,0,0.3c0,0,0,0.1,0,0.1h0v1.3c-0.3,0.1-0.7,0.1-1.1,0.1
			c-0.1,0-0.3,0-0.4,0v-2.1c0,0,0-0.1,0-0.1c0,0,0-0.1,0-0.1c0-0.3,0.1-0.5,0.2-0.8c0,0,0,0,0,0c0.1-0.3,0.3-0.5,0.4-0.7
			c0.2-0.1,0.3-0.3,0.5-0.3c0.2-0.1,0.5-0.2,0.7-0.2h0.3c0,0,0,0,0,0c0,0,0.1,0,0.1,0h3.2C71.7,78.2,71.1,79.2,70.4,79.9z"/>
	</g>
</g>
<g id="_14._Delivery_Truck">
	<path class="st2" d="M91.8,6.6h4.2l0,0v2.7c0,0.4-0.4,0.8-0.8,0.8h-2.6c-0.4,0-0.8-0.4-0.8-0.8V6.6L91.8,6.6z"/>
	<path class="st1" d="M109,15.1l-1.1-1.1l-1.2-3.6c-0.2-0.6-0.7-1-1.3-1H101V8c0-1.2-0.9-2.1-2.1-2.1H89c-1.2,0-2.1,0.9-2.1,2.1
		v10.5c0,1.2,0.9,2.1,2.1,2.1h0.8c0.4,1.5,1.9,2.4,3.4,2c1.5-0.4,2.4-1.9,2-3.4c-0.4-1.5-1.9-2.4-3.4-2c-1,0.3-1.8,1-2,2H89
		c-0.4,0-0.7-0.3-0.7-0.7V8c0-0.4,0.3-0.7,0.7-0.7h9.8c0.4,0,0.7,0.3,0.7,0.7v11.2h-2.1c-0.4,0-0.7,0.3-0.7,0.7s0.3,0.7,0.7,0.7h4.3
		c0.4,1.5,2,2.4,3.4,2c1-0.3,1.7-1,2-2h0.8c0.8,0,1.4-0.6,1.4-1.4V16C109.4,15.7,109.2,15.3,109,15.1z M92.5,18.6
		c0.8,0,1.4,0.6,1.4,1.4s-0.6,1.4-1.4,1.4s-1.4-0.6-1.4-1.4S91.8,18.6,92.5,18.6z M106.3,13.7h-2.5v-2.8h1.6L106.3,13.7z
		 M104.5,21.4c-0.8,0-1.4-0.6-1.4-1.4s0.6-1.4,1.4-1.4c0.8,0,1.4,0.6,1.4,1.4S105.3,21.4,104.5,21.4z M108,19.3h-0.8
		c-0.4-1.5-2-2.4-3.4-2c-1,0.3-1.7,1-2,2H101v-8.4h1.4v3.5c0,0.4,0.3,0.7,0.7,0.7h3.9l1,1V19.3z"/>
</g>
</svg>
