<?xml version="1.0" encoding="UTF-8"?>
<svg id="Layer_1" data-name="Layer 1" xmlns="http://www.w3.org/2000/svg" xmlns:xlink="http://www.w3.org/1999/xlink" viewBox="0 0 120 120">
  <defs>
    <style>
      .cls-1 {
        fill: url(#linear-gradient);
      }

      .cls-2 {
        fill: #fad20b;
      }

      .cls-3 {
        fill: #fff;
      }

      .cls-4 {
        fill: #3d3d9b;
      }
    </style>
    <linearGradient id="linear-gradient" x1="0" y1="60" x2="120" y2="60" gradientUnits="userSpaceOnUse">
      <stop offset="0" stop-color="#9b9bea"/>
      <stop offset="1" stop-color="#0b0bb5"/>
    </linearGradient>
  </defs>
  <rect class="cls-1" width="120" height="120"/>
  <path class="cls-3" d="M88.04,28.1c-4.08,0-7.39-3.31-7.39-7.39V.41c0-.14,.01-.27,.02-.41H0V120H120V28.1h-31.96Z"/>
  <g>
    <path class="cls-2" d="M72.57,48.27h0s-3.72,11.34-3.72,11.34c-1.7-4.74-5.9-17.51-5.9-17.51-.12-.4-.28-.86-.47-1.39-.19-.51-.42-.77-.69-.79h-.02c-.33,.01-.48,.29-.66,.79-.2,.53-.36,.99-.47,1.39,0,0-4.29,13.05-5.95,17.67l-3.73-11.28,1.26-3.77,2.72-8.11c.75-2.21,1.63-3.75,2.64-4.63,.96-.83,2.26-1.27,3.91-1.31,.09,0,.18,0,.27,0h.06c.09,0,.18,0,.27,0,1.66,.04,2.96,.48,3.92,1.31,1.01,.88,1.89,2.42,2.64,4.63l3.92,11.66Z"/>
    <g>
      <path class="cls-4" d="M54.45,65.97c0,2.02-1.61,3.65-3.61,3.65-1.17,0-2.21-.56-2.87-1.44-.44-.58-6.57-19.25-6.57-19.25-.12-.4-.28-.86-.48-1.39-.19-.51-.42-.77-.69-.79-.34,0-.49,.28-.69,.79-.2,.53-.36,.99-.47,1.39,0,0-6.14,18.67-6.57,19.25-.66,.88-1.7,1.44-2.87,1.44-1.99,0-3.61-1.63-3.61-3.65,0-.16,0-.32,.03-.48,.03-.23,.08-.45,.15-.67h0l.95-2.83,3.5-10.44,2.72-8.11c.75-2.21,1.63-3.75,2.64-4.62,.96-.83,2.26-1.27,3.91-1.31,.09,0,.18,0,.27,0h.05c.09,0,.18,0,.27,0,1.65,.04,2.95,.48,3.91,1.31,1.01,.88,1.89,2.42,2.64,4.62l7.18,21.37h0c.07,.21,.12,.44,.15,.67,.02,.16,.03,.32,.03,.48Z"/>
      <path class="cls-4" d="M97.46,65.97c0,2.02-1.61,3.65-3.61,3.65-1.17,0-2.21-.56-2.87-1.44-.44-.58-6.57-19.25-6.57-19.25-.12-.4-.28-.86-.48-1.39-.19-.51-.42-.77-.69-.79-.34,0-.49,.28-.69,.79-.2,.53-.36,.99-.48,1.39,0,0-6.14,18.67-6.57,19.25-.66,.88-1.7,1.44-2.87,1.44-1.99,0-3.61-1.63-3.61-3.65,0-.16,0-.32,.03-.48,.03-.23,.08-.45,.15-.67h0l.95-2.83,3.51-10.44,2.72-8.11c.75-2.21,1.63-3.75,2.64-4.62,.96-.83,2.26-1.27,3.91-1.31,.09,0,.18,0,.27,0h.05c.09,0,.18,0,.27,0,1.65,.04,2.96,.48,3.91,1.31,1.01,.88,1.89,2.42,2.64,4.62l7.18,21.37h0c.07,.21,.12,.44,.15,.67,.02,.16,.03,.32,.03,.48Z"/>
      <path class="cls-4" d="M45.49,82.39c0,.05,0,.1-.01,.14,0,.04-.04,.09-.09,.13-.05,.04-.1,.06-.16,.07-.06,0-.11,0-.15,0h-1.98c-.09,0-.17-.02-.26-.06-.09-.04-.15-.09-.2-.14-.09-.09-.14-.21-.16-.36-.02-.15-.03-.27-.03-.37,0-.24,.02-.41,.06-.5,.04-.1,.07-.17,.1-.2,.08-.11,.18-.17,.29-.19,.11-.02,.19-.03,.24-.03h2.36v1.51Zm1.29-4.24c-.09-.26-.2-.46-.34-.6-.14-.16-.34-.28-.57-.37-.23-.09-.49-.14-.76-.14h-2.34c-.65,0-1.18,.46-1.31,1.08v.03h3.16c.11,0,.23,.02,.36,.05,.12,.03,.24,.11,.33,.23,.08,.1,.13,.2,.15,.31,.02,.11,.03,.21,.03,.31v.72h-2.79c-.17,0-.35,.02-.56,.05-.21,.04-.41,.15-.61,.33-.24,.21-.4,.46-.45,.74-.06,.28-.09,.56-.09,.85,0,.12,0,.26,.01,.42,.01,.16,.03,.32,.07,.48,.04,.16,.09,.32,.17,.47,.08,.15,.18,.29,.31,.4,.18,.16,.38,.26,.59,.28,.21,.03,.4,.04,.58,.04h3.07c.15,0,.31-.01,.47-.04,.16-.03,.3-.1,.41-.22,.11-.11,.18-.25,.21-.42,.03-.16,.04-.3,.04-.42v-3.66c0-.37-.04-.69-.13-.94Z"/>
      <path class="cls-4" d="M52.49,81.26l-1.39,2.33-.14,.24h.89s.05,0,.07,0c.21-.01,.41-.07,.58-.17,.03-.02,.06-.04,.1-.06,.2-.14,.36-.33,.46-.56l.81-1.65c-.38-.19-.73-.42-1.05-.69l-.34,.56Zm4.26,2.33l-1.1-1.68c-.6-.07-1.17-.23-1.69-.48l.85,1.67c.21,.42,.63,.71,1.12,.73h0s.04,0,.07,0h.9l-.15-.24Z"/>
      <path class="cls-4" d="M53.08,83.04l-.39,.79h-.83s.05,0,.07,0c.21-.01,.41-.07,.58-.17,.03-.02,.07-.04,.1-.06,.2-.14,.36-.33,.46-.56Z"/>
      <path class="cls-4" d="M55.93,83.86h-.82l-.37-.73c.21,.42,.63,.71,1.12,.73h0s.04,0,.06,0Z"/>
      <path class="cls-4" d="M62.4,77.04v3.05c-.26-.04-.52-.06-.79-.06-.23,0-.45,.01-.67,.04v-3.03h1.46Z"/>
      <path class="cls-4" d="M62.4,80.53v3.32h-1.46v-3.33c.22-.03,.44-.04,.67-.04,.27,0,.54,.02,.79,.06Z"/>
      <path class="cls-4" d="M85.96,78.42c0-.06-.01-.13-.02-.19-.02-.12-.06-.24-.12-.35l-.07-.13c-.1-.16-.23-.3-.39-.4-.18-.12-.39-.2-.62-.22-.04,0-.08,0-.12,0h-.12v5.06c0,.07,0,.14-.01,.2,0,.07-.04,.14-.11,.2-.09,.1-.23,.14-.43,.14h-1.21c-.27,0-.5-.02-.7-.08-.2-.05-.36-.17-.49-.36-.09-.13-.16-.28-.19-.47-.04-.18-.05-.42-.05-.72v-2.63s0-.04,0-.07c0-.06-.01-.13-.02-.19-.02-.12-.06-.24-.11-.35l-.07-.13c-.1-.16-.23-.3-.39-.4-.18-.12-.39-.2-.62-.22-.04,0-.08,0-.12,0h-.12v4.26c0,.42,.04,.79,.13,1.12,.09,.33,.27,.62,.55,.87,.22,.2,.47,.33,.74,.4,.27,.07,.6,.11,.98,.11h2.34c.17,0,.36-.01,.55-.04,.19-.03,.35-.1,.49-.22,.16-.14,.27-.3,.3-.49,.03-.19,.05-.35,.05-.46v-4.18s0-.04,0-.07Z"/>
      <path class="cls-4" d="M81.32,77.12v1.37s0-.04,0-.07c0-.06-.01-.13-.02-.19-.02-.12-.06-.24-.11-.35l-.07-.13c-.1-.16-.23-.3-.39-.4-.18-.12-.39-.2-.62-.22-.04,0-.08,0-.12,0h1.34Z"/>
      <path class="cls-4" d="M97.44,81.49c-.01-.14-.04-.3-.08-.45-.04-.16-.09-.32-.17-.47-.07-.16-.18-.3-.31-.43-.13-.13-.3-.24-.51-.35-.21-.1-.45-.2-.75-.29l-2.28-.74-.92-.3c-.35-.12-.57-.27-.67-.45-.1-.18-.15-.36-.15-.56,0-.08,0-.2,.03-.33,.02-.14,.09-.26,.19-.36,.1-.09,.21-.15,.33-.17,.12-.02,.24-.03,.36-.03h3.24s.02,0,.03,0c.19-.02,.37-.07,.53-.17,.03-.02,.06-.04,.1-.06,.34-.23,.57-.63,.59-1.07,0-.01,0-.02,0-.03h-5.04s-.07,0-.1,0c-.96,.05-1.74,.78-1.88,1.73,0,0,0,0,0,0-.01,.12-.02,.24-.02,.35v.06c0,.13,0,.26,.01,.41,0,.15,.03,.29,.06,.44,.03,.15,.08,.29,.14,.44,.06,.14,.14,.28,.24,.39,.08,.11,.18,.2,.29,.28,.11,.08,.21,.14,.31,.2,.1,.06,.19,.1,.27,.13,.08,.03,.14,.05,.17,.06l2.66,.85,.8,.26c.19,.06,.35,.13,.46,.21,.11,.08,.2,.17,.26,.26,.06,.09,.1,.18,.11,.27,.02,.1,.03,.18,.03,.27,0,.08,0,.17-.02,.28-.01,.11-.04,.22-.1,.32-.05,.1-.14,.19-.24,.26-.11,.07-.26,.11-.46,.11h-3.7s-.04,0-.06,0h0c-.22,.02-.43,.1-.61,.22,0,0-.01,0-.02,0-.18,.12-.32,.29-.42,.48-.06,.11-.11,.24-.14,.37-.02,.08-.03,.17-.03,.25,0,0,0,0,0,0h5.51c.53,0,1.01-.21,1.37-.56,.27-.26,.47-.6,.57-.98h0c.03-.22,.06-.42,.06-.62,0-.05,0-.09,0-.14,0-.1,0-.22-.02-.37Z"/>
      <path class="cls-4" d="M36.94,76.37v7.87s-.03,0-.04,0c-.54-.02-1.02-.31-1.3-.74-.03-.04-.05-.08-.08-.12-.11-.2-.18-.43-.2-.67,0,0,0-.02,0-.02t0,0v-.27s0,0,0,0l.02-5v-.13c0-.12-.02-.19-.06-.22-.04-.03-.07-.04-.09-.04-.04,0-.09,.04-.13,.11-.04,.07-.07,.13-.09,.18l-1.22,3.25h0s-.79,2.01-.79,2.01v.02s-.23,.6-.23,.6c-.07,.17-.13,.32-.19,.45-.06,.13-.14,.25-.23,.34-.09,.09-.2,.16-.34,.21-.13,.05-.3,.07-.49,.07-.21,0-.38-.03-.52-.09-.14-.06-.25-.14-.34-.24-.09-.1-.17-.21-.23-.34-.06-.13-.11-.26-.16-.41l-.23-.62-.79-2-1.22-3.25c-.02-.05-.05-.11-.09-.18-.04-.07-.09-.11-.13-.11-.07,0-.11,.04-.12,.12-.01,.08-.02,.13-.02,.15v.13s.01,4.23,.01,4.23v1.04s0,.02,0,.04c-.02,.24-.09,.46-.2,.67-.02,.04-.05,.08-.07,.12-.29,.43-.76,.72-1.3,.74-.02,0-.03,0-.04,0v-7.87c0-.29,.06-.51,.19-.67,.13-.16,.27-.28,.43-.35,.16-.08,.31-.12,.47-.13,.15-.01,.26-.02,.33-.02,.25,0,.46,.03,.63,.09,.17,.06,.32,.14,.43,.25,.11,.11,.21,.23,.28,.37,.08,.14,.14,.29,.2,.44l2.27,5.87c.04,.09,.08,.17,.12,.23,.04,.06,.08,.1,.12,.1s.08-.03,.12-.1c.04-.06,.08-.14,.12-.23l2.27-5.87c.09-.26,.19-.46,.31-.61,.11-.15,.24-.26,.37-.34,.13-.08,.27-.14,.41-.16,.14-.02,.29-.04,.45-.04,.41,0,.75,.09,1.01,.28,.27,.18,.4,.48,.4,.89Z"/>
      <path class="cls-4" d="M67.02,81.95c.28,0,.55-.02,.81-.06v.65c-.02,.45-.25,.84-.59,1.07-.03,.02-.06,.04-.1,.06-.17,.1-.37,.16-.58,.17-.02,0-.05,0-.07,0h-.12v-1.93c.21,.03,.43,.04,.65,.04Z"/>
      <path class="cls-4" d="M71.92,78.96v4.89h-1.46v-3.08c.61-.49,1.11-1.1,1.46-1.81Z"/>
      <path class="cls-4" d="M75.78,79.12v4.73h-.12s-.04,0-.06,0h0s-.04,0-.05,0c-.22-.02-.43-.1-.61-.21-.19-.13-.35-.3-.45-.51-.1-.18-.15-.39-.15-.61v-2.59h0s0-.04,0-.06c0-.07,0-.13-.02-.19-.02-.12-.06-.24-.12-.35l-.02-.03-.05-.1c-.1-.16-.23-.3-.39-.41-.19-.13-.4-.21-.64-.22-.02,0-.04,0-.07,0h-.04s-.07,0-.1,0h-.9c.19-.47,.32-.97,.38-1.49h1.14s.07,0,.1,0c0,0,.02,0,.03,0h.3c.26,.02,.5,.09,.72,.2,.2,.08,.38,.19,.54,.34,.19,.19,.34,.42,.44,.7,0,0,0,0,0,.01,.1,.24,.16,.51,.16,.79Z"/>
      <path class="cls-4" d="M56.9,77.04l-.15,.23-1.48,2.28-.57,.89,.54,.83c-1.21-.3-2.26-1.03-2.97-2.03l-.4-.67-.78-1.29-.14-.23h.89c.48,0,.89,.25,1.13,.63l.07,.12,.87,1.58,.91-1.63c.1-.19,.25-.36,.43-.48,0,0,0,0,.01,0,.21-.14,.46-.22,.73-.22h.89Z"/>
      <path class="cls-4" d="M60.83,74.5h1.46v1.19h-1.46v-1.19Z"/>
      <path class="cls-4" d="M70.37,79.94v-1.37h-1.08s-.06,0-.1,0h0s-.07,0-.1,0c0,0-.02,0-.02,0-.22,.02-.43,.1-.61,.22,0,0,0,0-.02,0-.18,.12-.32,.29-.43,.48-.06,.12-.11,.24-.14,.37-.02,.09-.03,.19-.03,.29,0,.04,0,.07,0,.1h0v1.28c-.34,.08-.7,.11-1.07,.11-.13,0-.27,0-.4-.02v-2.13s0-.06,0-.09c0-.03,0-.05,0-.08,0-.28,.05-.55,.16-.79,0,0,0,0,0-.01,.1-.29,.25-.52,.44-.7,.16-.15,.34-.26,.54-.34,.22-.11,.46-.18,.72-.2h.3s.02,0,.03,0c.04,0,.07,0,.1,0h3.19c-.19,1.11-.72,2.11-1.48,2.86Z"/>
    </g>
  </g>
  <g id="_14._Delivery_Truck" data-name=" 14. Delivery Truck">
    <path class="cls-2" d="M91.84,6.63h4.21v2.72c0,.43-.35,.79-.79,.79h-2.64c-.43,0-.79-.35-.79-.79v-2.72h0Z"/>
    <path class="cls-3" d="M108.98,15.06l-1.08-1.08-1.19-3.57c-.19-.57-.73-.96-1.33-.96h-4.41v-1.4c0-1.16-.94-2.11-2.11-2.11h-9.83c-1.16,0-2.11,.94-2.11,2.11v10.53c0,1.16,.94,2.11,2.11,2.11h.8c.39,1.5,1.92,2.41,3.42,2.02,1.5-.39,2.41-1.92,2.02-3.42-.39-1.5-1.92-2.41-3.42-2.02-.99,.26-1.76,1.03-2.02,2.02h-.8c-.39,0-.7-.31-.7-.7V8.04c0-.39,.31-.7,.7-.7h9.83c.39,0,.7,.31,.7,.7v11.23h-2.11c-.39,0-.7,.31-.7,.7s.31,.7,.7,.7h4.31c.41,1.5,1.95,2.38,3.45,1.97,.96-.26,1.71-1.01,1.97-1.97h.8c.78,0,1.4-.63,1.4-1.4v-3.22c0-.37-.15-.73-.41-.99Zm-16.44,3.51c.78,0,1.4,.63,1.4,1.4s-.63,1.4-1.4,1.4-1.4-.63-1.4-1.4,.63-1.4,1.4-1.4Zm13.77-4.92h-2.53v-2.81h1.6l.93,2.81Zm-1.83,7.72c-.78,0-1.4-.63-1.4-1.4s.63-1.4,1.4-1.4,1.4,.63,1.4,1.4-.63,1.4-1.4,1.4Zm3.51-2.11h-.8c-.41-1.5-1.95-2.38-3.45-1.97-.96,.26-1.71,1.01-1.97,1.97h-.8V10.85h1.4v3.51c0,.39,.31,.7,.7,.7h3.93l.99,.99v3.22Z"/>
  </g>
</svg>